<svg xmlns="http://www.w3.org/2000/svg" enable-background="new 0 0 100 100" viewBox="0 0 100 100" id="google-mail"><g><path fill="#d95040" d="M49.447,41.459L25.09,23.19v25.259l25.24,18.93l25.24-18.93V23.19L51.213,41.459
				C50.689,41.852,49.97,41.852,49.447,41.459z"></path><path fill="#58a55c" d="M75.976,84.637H90.63c2.981,0,5.407-2.335,5.407-5.206V34.516L75.976,49.003V84.637z"></path><path fill="#4e86ec" d="M3.833,78.833c0,2.871,2.431,5.206,5.419,5.206H23.94V48.405L3.833,33.917V78.833z"></path><path fill="#b6332a" d="M9.347,17.119c-2.958,1.479-4.723,4.336-4.723,7.643v8.168L23.94,47.416V22.158l-5.644-4.232
				C15.65,15.941,12.304,15.639,9.347,17.119z"></path><path fill="#f3bd42" d="M90.864,16.798c-2.958-1.478-6.303-1.178-8.949,0.807l-5.644,4.232v25.259l19.316-14.487V24.44
				C95.587,21.134,93.821,18.276,90.864,16.798z"></path><path d="M97.498,67.342c0.006-6.149-0.004-37.025,0-42.489c0.113-8.79-10.334-14.029-17.309-8.654
			c-3.602,2.721-26.049,19.523-30.189,22.643c-4.246-3.185-26.424-19.819-30.19-22.643c-6.954-5.366-17.431-0.148-17.308,8.655
			c0,0,0,8.384,0,8.384c0.015,0.429,0.206,0.848,0.554,1.109L23.461,49.65v33.553H10.175c-2.703,0-4.902-2.199-4.902-4.902V40.011
			c-0.008-1.805-2.752-1.83-2.772,0c0,0,0,38.291,0,38.291c0,4.232,3.442,7.674,7.674,7.674h14.672c0.765,0,1.386-0.621,1.386-1.386
			v-32.86l22.935,17.201c0.493,0.369,1.171,0.369,1.664,0l22.935-17.201v32.86c0,0.765,0.621,1.386,1.386,1.386h14.672
			c4.232,0,7.674-3.442,7.674-7.674v-5.08c-0.053-1.84-2.732-1.812-2.772,0c0,0,0,5.08,0,5.08c0,2.703-2.199,4.902-4.902,4.902
			H76.538V49.65l18.188-13.641v31.333C94.736,69.151,97.478,69.167,97.498,67.342z M23.461,46.185L5.273,32.543v-7.691
			c0-3.114,1.663-5.804,4.447-7.197c2.784-1.394,5.934-1.111,8.426,0.76l5.314,3.985V46.185z M73.766,48.264L49.999,66.089
			L26.233,48.264V24.48l22.935,17.202c0.493,0.37,1.171,0.37,1.664,0L73.766,24.48V48.264z M76.538,46.185V22.401l5.314-3.985
			c5.067-4.044,13.071-0.043,12.874,6.437c0,0,0,7.69,0,7.69L76.538,46.185z"></path></g></svg>